<svg class="w-6 h-6" width="24" height="24" viewBox="0 0 24 24" fill="none" xmlns="http://www.w3.org/2000/svg"><path d="M20.9998 14.5C20.9998 13.5717 20.6308 12.6818 19.9744 12.0254C19.3591 11.4101 18.5387 11.0468 17.6737 11.0039L17.4998 11H15.7098C15.2678 10.9999 14.8783 10.7096 14.7518 10.2861C14.4339 9.21983 13.8254 8.26205 12.995 7.52148C12.1646 6.78109 11.1441 6.28599 10.0487 6.09179C8.95321 5.89769 7.82511 6.01195 6.79086 6.42187C5.75649 6.83185 4.8563 7.52204 4.19125 8.41406C3.52634 9.30603 3.12284 10.3654 3.02523 11.4736C2.92761 12.582 3.13962 13.6959 3.63851 14.6904C4.13741 15.685 4.90363 16.521 5.85043 17.1055C6.79707 17.6898 7.88739 17.9996 8.99984 18H17.4998C18.4281 18 19.3181 17.6309 19.9744 16.9746C20.6308 16.3182 20.9998 15.4283 20.9998 14.5ZM22.9998 14.5C22.9998 15.9585 22.4207 17.3573 21.3895 18.3887C20.358 19.4201 18.9585 20 17.4998 20H8.99984C7.51634 19.9996 6.06201 19.5868 4.79964 18.8076C3.53726 18.0283 2.5166 16.913 1.8514 15.5869C1.1862 14.2608 0.902874 12.7757 1.03304 11.2978C1.16324 9.82029 1.70125 8.40797 2.58773 7.21875C3.47449 6.02935 4.67532 5.10913 6.05453 4.5625C7.43361 4.01601 8.93763 3.86411 10.3983 4.12304C11.859 4.38201 13.2188 5.04197 14.326 6.02929C15.2442 6.84814 15.9579 7.86573 16.4168 9H17.4998L17.7723 9.00683C19.1319 9.07418 20.4224 9.64424 21.3895 10.6113C22.4207 11.6427 22.9998 13.0415 22.9998 14.5Z" fill="#686583" style="fill-opacity:1;"/></svg>